<?xml version="1.0" encoding="utf-8"?>
<svg viewBox="0 0 500 500" xmlns="http://www.w3.org/2000/svg">
  <ellipse style="stroke-miterlimit: 4.63; stroke-linejoin: round; stroke: rgb(255, 255, 255); stroke-linecap: round; stroke-width: 0px; fill: rgb(255, 255, 255);" cx="253.798" cy="153.152" rx="148.872" ry="148.872">
    <title>sun-white</title>
  </ellipse>
  <polygon style="stroke-linejoin: round; stroke-linecap: round; stroke: rgb(255, 255, 255); fill: rgb(255, 255, 255); stroke-width: 20px;" points="55.382 130.192 445.991 129.107 370.938 227.797 133.977 225.261">
    <title>T-top-white</title>
  </polygon>
  <rect x="196.805" y="181.727" width="111.984" height="174.527" style="stroke: rgb(255, 255, 255); stroke-width: 0px; fill: rgb(255, 255, 255);">
    <title>T</title>
  </rect>
  <rect x="121.069" y="182.407" width="260.976" height="287.989" style="fill: rgb(255, 255, 255); stroke-linecap: round; stroke: rgb(255, 255, 255); stroke-linejoin: round; stroke-width: 30px;">
    <title>H-white-bg</title>
  </rect>
  <ellipse style="fill: rgb(255, 217, 0); stroke-miterlimit: 4.63; stroke-linejoin: round; stroke: rgb(255, 255, 255); stroke-linecap: round; stroke-width: 0px;" cx="253.489" cy="152.336" rx="104.721" ry="104.721">
    <title>sun</title>
  </ellipse>
  <g transform="matrix(0.7763319611549377, 0, 0, 0.7763319611549377, -32.87050677642975, 102.38483581520367)" style="">
    <title>H</title>
    <line stroke-linecap="undefined" stroke-linejoin="undefined" id="svg_1" y2="444.19325" x2="261.99234" y1="155.15" x1="261.99234" stroke-width="60" fill="none" style="" stroke="#000">
      <title>H-left</title>
    </line>
    <line stroke-linecap="undefined" stroke-linejoin="undefined" id="svg_2" y2="444.69325" x2="472.22333" y1="155.65" x1="472.22333" stroke-width="60" fill="none" style="" stroke="#000">
      <title>H-right</title>
    </line>
    <line stroke-linecap="undefined" stroke-linejoin="undefined" id="svg_3" y2="367.8" x2="471.93503" y1="367.8" x1="261.4" fill-opacity="null" stroke-opacity="null" stroke-width="60" fill="none" style="" stroke="#000">
      <title>H-mid</title>
    </line>
  </g>
  <line style="fill: rgb(216, 216, 216); stroke-linecap: round; stroke: rgb(0, 170, 0); stroke-width: 6px;" x1="148.294" y1="450.041" x2="193.389" y2="450.033"/>
  <g style="" transform="matrix(3.9967100620269775, 0, 0, 2.2586669921875, -863.375379076233, 28.55978817581814)">
    <title>T-top</title>
    <rect x="273.694" y="68.839" width="11.729" height="62.841" style="stroke: rgb(255, 255, 255); stroke-width: 0px;">
      <title>T</title>
    </rect>
    <path style="stroke-linejoin: round; stroke-linecap: round; stroke: rgb(255, 255, 255); stroke-width: 0px;" d="M 241.445 52.589 L 317.147 52.589 L 306.342 71.902 L 252.26 71.589 Z"/>
    <path style="stroke: rgb(255, 255, 255); stroke-width: 0px;" d="M 273.669 127.866 C 276.896 129.308 282.86 129.302 285.54 127.776 L 285.241 135.857 C 280.471 137.573 279.431 137.594 273.877 135.765 L 273.669 127.866 Z"/>
    <path style="fill: rgb(255, 217, 0); stroke: rgb(255, 255, 255); stroke-width: 0px;" d="M 273.587 99.916 C 276.843 101.358 282.865 101.352 285.57 99.826 L 285.568 108.01 C 281.328 109.889 277.859 109.572 273.587 108.21 L 273.587 99.916 Z"/>
    <path style="fill: rgb(255, 217, 0); stroke: rgb(255, 255, 255); stroke-width: 0px;" d="M 273.541 112.015 C 276.797 113.457 282.818 113.451 285.524 111.925 L 285.522 120.109 C 281.282 121.988 277.812 121.671 273.541 120.309 L 273.541 112.015 Z"/>
    <path style="fill: rgb(255, 217, 0); stroke: rgb(255, 255, 255); stroke-width: 0px;" d="M 273.564 124.108 C 276.821 125.55 282.842 125.544 285.547 124.018 L 285.545 132.202 C 281.305 134.081 277.837 133.764 273.564 132.402 L 273.564 124.108 Z"/>
  </g>
  <line style="fill: rgb(216, 216, 216); stroke-linecap: round; stroke: rgb(0, 170, 0); stroke-width: 6px;" x1="310.907" y1="449.75" x2="356.002" y2="449.742"/>
  <line style="fill: rgb(216, 216, 216); stroke-linecap: square; stroke: rgb(2, 72, 255); stroke-width: 7px;" x1="152.205" y1="150.715" x2="354.969" y2="151.043"/>
</svg>