<?xml version="1.0" encoding="utf-8"?>
<svg viewBox="0 0 500 500" xmlns="http://www.w3.org/2000/svg">
  <rect x="13.784" y="215.834" width="456.888" height="76.722" style="stroke-linejoin: round; stroke-width: 25px; stroke-linecap: round; stroke: rgb(255, 255, 255); fill: rgb(255, 255, 255);" transform="matrix(1, 0, 0, 1, -1.4210854715202004e-14, 0)"/>
  <g transform="matrix(1.0060189962387085, 0, 0, 1.0060189962387085, 97.28134155273436, 18.951019287109375)" style="">
    <title>TH</title>
    <g transform="matrix(0.212996, 0, 0, 0.212996, 63.309346, 176.961276)" style="">
      <title>background</title>
      <g display="none" overflow="visible" y="0" x="0" height="100%" width="100%" id="canvasGrid">
        <rect fill="url(#gridpattern)" stroke-width="0" y="0" x="0" height="100%" width="100%" style="stroke-linejoin: round; stroke-linecap: round;"/>
      </g>
    </g>
    <ellipse style="stroke-miterlimit: 4.63; stroke-linejoin: round; stroke: rgb(255, 255, 255); stroke-linecap: round; stroke-width: 0px; fill: rgb(255, 255, 255);" cx="138.961" cy="189.523" rx="44.673" ry="44.673">
      <title>sun-white</title>
    </ellipse>
    <rect x="125.389" y="197.236" width="29.466" height="45.922" style="stroke: rgb(255, 255, 255); stroke-width: 0px; fill: rgb(255, 255, 255);">
      <title>T</title>
    </rect>
    <ellipse style="fill: rgb(255, 217, 0); stroke-miterlimit: 4.63; stroke-linejoin: round; stroke: rgb(255, 255, 255); stroke-linecap: round; stroke-width: 0px;" cx="140.304" cy="189.503" rx="27.555" ry="27.555">
      <title>sun</title>
    </ellipse>
    <g transform="matrix(0.205751, 0, 0, 0.205751, 66.367868, 176.204364)" style="">
      <title>background</title>
      <g display="none" overflow="visible" y="0" x="0" height="100%" width="100%" id="g-1">
        <rect fill="url(#gridpattern)" stroke-width="0" y="0" x="0" height="100%" width="100%" style="stroke-linejoin: round; stroke-linecap: round;"/>
      </g>
    </g>
    <g transform="matrix(0.202842, 0, 0, 0.202842, 65.67714, 176.258807)" style="">
      <title>H</title>
      <line stroke-linecap="undefined" stroke-linejoin="undefined" id="svg_1" y2="444.19325" x2="261.99234" y1="155.15" x1="261.99234" stroke-width="60" fill="none" style="" stroke="#000">
        <title>H-left</title>
      </line>
      <line stroke-linecap="undefined" stroke-linejoin="undefined" id="svg_2" y2="444.69325" x2="472.22333" y1="155.65" x1="472.22333" stroke-width="60" fill="none" style="" stroke="#000">
        <title>H-right</title>
      </line>
      <line stroke-linecap="undefined" stroke-linejoin="undefined" id="svg_3" y2="367.8" x2="471.93503" y1="367.8" x1="261.4" fill-opacity="null" stroke-opacity="null" stroke-width="60" fill="none" style="" stroke="#000">
        <title>H-mid</title>
      </line>
    </g>
    <g style="" transform="matrix(1.044272, 0, 0, 0.590152, -151.248415, 156.969592)">
      <title>T-top</title>
      <rect x="273.694" y="68.839" width="11.729" height="62.841" style="stroke: rgb(255, 255, 255); stroke-width: 0px;">
        <title>T</title>
      </rect>
      <polygon style="stroke-linejoin: round; stroke-linecap: round; stroke: rgb(255, 255, 255); stroke-width: 0px;" points="241.445 52.589 317.147 52.589 306.342 71.902 252.26 71.589">
        <title>T-top</title>
      </polygon>
      <path style="stroke: rgb(255, 255, 255); stroke-width: 0px;" d="M 273.669 127.866 C 276.896 129.308 282.86 129.302 285.54 127.776 L 285.241 135.857 C 280.471 137.573 279.431 137.594 273.877 135.765 L 273.669 127.866 Z"/>
      <path style="fill: rgb(255, 217, 0); stroke: rgb(255, 255, 255); stroke-width: 0px;" d="M 273.587 99.916 C 276.843 101.358 282.865 101.352 285.57 99.826 L 285.568 108.01 C 281.328 109.889 277.859 109.572 273.587 108.21 L 273.587 99.916 Z"/>
      <path style="fill: rgb(255, 217, 0); stroke: rgb(255, 255, 255); stroke-width: 0px;" d="M 273.541 112.015 C 276.797 113.457 282.818 113.451 285.524 111.925 L 285.522 120.109 C 281.282 121.988 277.812 121.671 273.541 120.309 L 273.541 112.015 Z"/>
      <path style="fill: rgb(255, 217, 0); stroke: rgb(255, 255, 255); stroke-width: 0px;" d="M 273.564 124.108 C 276.821 125.55 282.842 125.544 285.547 124.018 L 285.545 132.202 C 281.305 134.081 277.837 133.764 273.564 132.402 L 273.564 124.108 Z"/>
    </g>
    <line style="fill: rgb(216, 216, 216); stroke-linecap: square; stroke: rgb(2, 72, 255); stroke-width: 2.98205px;" x1="114.257" y1="189.503" x2="166.34" y2="189.44"/>
  </g>
  <path d="M 63.009 256.537 L 87.106 256.512 L 87.101 259.989 C 87.044 262.457 86.835 265.463 85.987 268.586 C 85.537 270.244 84.61 273.031 83.395 274.928 C 81.668 277.625 79.872 279.664 78.207 281.13 C 76.694 282.462 74.497 284.397 70.963 285.914 C 67.983 287.193 63.97 288.2 59.452 288.212 C 55.705 288.222 51.287 287.308 47.522 285.642 C 43.47 283.849 40.132 281.211 37.945 278.676 C 33.99 274.092 29.773 268.022 29.706 257.916 C 29.67 252.507 30.951 247.318 33.239 243.201 C 36.177 237.914 40.571 234.21 43.466 232.129 C 48.199 228.728 54.917 227.089 60.172 227.12 C 65.439 227.151 69.48 228.185 73.602 230.041 C 77.771 231.922 80.882 235.255 84.437 239.078 L 78.107 245.028 C 77.476 243.477 74.004 240.35 72.408 239.112 C 70.812 237.874 67.66 236.681 65.988 236.117 C 63.82 235.385 60.321 235.159 57.238 235.613 C 52.25 236.348 48.782 238.247 45.888 240.958 C 42.682 243.961 38.502 249.28 38.502 258.102 C 38.502 267.025 44.056 273.125 47.067 275.236 C 50.247 277.465 54.334 279.889 59.571 279.889 C 64.369 279.889 66.304 279.032 68.819 277.467 C 71.339 275.899 71.942 275.74 75.047 271.798 C 75.047 271.798 76.66 269.219 77.228 266.844 C 77.326 266.433 77.567 264.752 77.567 264.752 L 62.985 264.756 L 63.009 256.537 Z" style="stroke: rgb(255, 255, 255); stroke-width: 0px;" transform="matrix(1, 0, 0, 1, -1.4210854715202004e-14, 0)"/>
  <path d="M 98.931 228.247 L 111.265 228.293 C 115.587 228.293 121.597 229.6 124.079 231.193 C 128.235 233.86 131.312 238.107 131.663 243.588 C 131.946 248.006 132.009 251.299 128.18 256.158 C 124.351 261.017 121.183 261.265 118.565 261.875 L 136.967 287.06 L 126.124 287.043 L 109.334 263.019 L 107.803 262.834 L 107.608 287.127 L 98.931 287.127 L 98.931 228.247 Z M 107.708 255.287 C 110.784 255.287 112.069 255.602 116.552 254.477 C 121.035 253.352 123.241 249.352 123.241 245.971 C 123.241 244.14 123.116 242.278 121.648 240.358 C 120.18 238.438 118.191 237.725 116.798 237.235 C 115.405 236.745 114.129 236.675 112.684 236.542 C 111.239 236.409 110.609 236.479 109.363 236.479 L 107.702 236.452 L 107.708 255.287 Z" style="stroke: rgb(255, 255, 255); stroke-width: 0px;" transform="matrix(1, 0, 0, 1, -1.4210854715202004e-14, 0)"/>
  <path d="M 168.735 224.524 L 196.718 287.223 L 186.949 287.192 L 180.891 272.647 L 155.682 272.577 L 148.812 287.175 L 139.646 287.092 L 168.735 224.524 Z M 177.445 264.436 C 177.445 264.436 171.545 251.148 168.555 244.326 C 165.731 250.965 159.389 264.348 159.389 264.348 L 177.445 264.436 Z" style="stroke: rgb(255, 255, 255); stroke-width: 0px;" transform="matrix(1, 0, 0, 1, -1.4210854715202004e-14, 0)"/>
  <path d="M 287.928 228.407 L 320.382 228.407 L 320.382 236.597 L 296.744 236.597 L 296.744 250.825 L 319.744 250.825 L 319.744 259.115 L 296.744 259.115 L 296.744 278.883 L 320.348 278.883 L 320.348 287.148 L 287.928 287.148 L 287.928 228.407 Z" style="stroke: rgb(255, 255, 255); stroke-width: 0px;" transform="matrix(1, 0, 0, 1, -1.4210854715202004e-14, 0)"/>
  <path d="M 390.893 259.051 C 390.918 269.449 385.339 276.645 380.298 280.798 C 375.257 284.951 371.187 288.026 360.539 288.026 C 349.345 288.026 343.048 283.836 338.472 279.133 C 333.943 274.531 329.289 266.143 329.815 256.119 C 330.212 248.554 333.262 241.203 339.527 235.498 C 346.051 229.557 351.678 227.201 360.466 227.338 C 370.116 227.488 374.074 230.193 378.618 233.272 C 383.244 236.407 384.967 239.069 387.222 242.842 C 390.376 248.118 390.873 250.622 390.893 259.051 Z M 382.377 259.387 C 382.669 249.196 378.464 244.131 375.785 241.461 C 372.353 238.04 366.465 235.475 360.943 235.475 C 355.42 235.475 349.884 236.997 345.867 241.125 C 341.85 245.253 338.317 248.536 338.317 257.892 C 338.317 266.511 343.194 272.285 346.124 274.752 C 349.321 277.444 354.963 280.126 360.288 280.126 C 365.511 280.126 371.742 277.539 373.897 275.488 C 376.439 273.07 382.114 268.574 382.377 259.387 Z" style="stroke: rgb(255, 255, 255); stroke-width: 0px;" transform="matrix(1, 0, 0, 1, -1.4210854715202004e-14, 0)"/>
  <path d="M 402.825 224.456 L 445.83 269.4 L 445.92 228.329 L 454.618 228.382 L 454.589 290.595 C 454.589 290.595 411.575 245.634 411.622 245.965 L 411.582 287.117 L 402.764 287.05 L 402.825 224.456 Z" style="stroke: rgb(255, 255, 255); stroke-width: 0px;" transform="matrix(1, 0, 0, 1, -1.4210854715202004e-14, 0)"/>
</svg>